# xmcd
#
# Track frame offsets:
#	150
#	13105
#	29769
#	44217
#	57875
#	71837
#	86764
#	104893
#	121571
#	134224
#	152214
#	167290
#	184283
#	200130
#	213516
#	229613
#	230593
#	231335
#	232083
#	232823
#	233705
#	234513
#	235355
#	236138
#	237028
#	238098
#	238863
#	239538
#	240303
#	241148
#	241938
#	242718
#	243443
#	244313
#	245045
#	245720
#	246395
#	247190
#	247920
#	248668
#	249345
#	250130
#	251048
#	251740
#	252393
#	253053
#	253808
#	254523
#	255228
#	255905
#	256695
#	257575
#	258215
#	258860
#	259530
#	260275
#	260930
#	261610
#	262273
#
# Disc length: 3504 seconds
#
# Revision: 3
# Processed by: cddbd v1.5.2PL0 Copyright (c) Steve Scherf et al.
# Submitted via: audiograbber 1.83.01
#
DISCID=740dae3b
DTITLE=Various Artist - CDX Volume 645 (March 20, 2017)
DYEAR=2017
DGENRE=Country
TTITLE0=Little Big Town - Happy People
TTITLE1=Brett Eldredge - Somethin' I'm Good At
TTITLE2=Ray Scott - Livin' This Way 
TTITLE3=Bobby Bare - Things Change
TTITLE4=Greg Hudik - Whole Lotta Crazy About You
TTITLE5=Macy Martin - Broke Down
TTITLE6=Brooke Woods - God Bless The World 
TTITLE7=SaraBeth - I Want It That Way
TTITLE8=Cortni Bird - Men Don't Have It Like That
TTITLE9=John Hord - More Than I'm Used To
TTITLE10=Blane Howard - Promise To Love Her
TTITLE11=James Robert Webb - Six Strings and The Truth
TTITLE12=Joe Lasher Jr - Tap A Little Tail Light
TTITLE13=Dave McElroy - Without You
TTITLE14=Parker Willingham - You Get Me Every Time
TTITLE15=Cherie Brennan - Radio Liner - My New Single
TTITLE16=Cherie Brennan - Radio Liner - Today's Best Country
TTITLE17=Cherie Brennan - Radio Liner - Kickin' Country
TTITLE18=Cherie Brennan - Radio Liner - Hometown Country
TTITLE19=Cherie Brennan - Radio Liner - Super Country
TTITLE20=Cherie Brennan - Radio Liner - Today's Hot Country
TTITLE21=Cherie Brennan - Radio Liner - Best In Today's Country
TTITLE22=Cherie Brennan - Radio Liner - More of the Country You Love
TTITLE23=Cherie Brennan - Radio Liner - Howlin' Country
TTITLE24=Courtney Dickinson - Radio Liner - My New Single
TTITLE25=Courtney Dickinson - Radio Liner - Today's Best Country
TTITLE26=Courtney Dickinson - Radio Liner - Kickin' Country
TTITLE27=Courtney Dickinson - Radio Liner - Hometown Country
TTITLE28=Courtney Dickinson - Radio Liner - Super Country
TTITLE29=Courtney Dickinson - Radio Liner - Today's Hot Country
TTITLE30=Courtney Dickinson - Radio Liner - The Best In Today's Country
TTITLE31=Courtney Dickinson - Radio Liner - More of the Country You Love
TTITLE32=Courtney Dickinson - Radio Liner - Howlin' Country
TTITLE33=Denny Strickland - Radio Liner - Today's Best Country
TTITLE34=Denny Strickland - Radio Liner - Kickin' Country
TTITLE35=Denny Strickland - Radio Liner - Hometown Country
TTITLE36=Denny Strickland - Radio Liner - Super Country
TTITLE37=Denny Strickland - Radio Liner - Today's Hot Country
TTITLE38=Denny Strickland - Radio Liner - Best In Today's Country
TTITLE39=Denny Strickland - Radio Liner - More of the Country You Love
TTITLE40=Denny Strickland - Radio Liner - Howlin' Country
TTITLE41=Nick Brennan - Radio Liner - My New Single
TTITLE42=Nick Brennan - Radio Liner - Today's Best Country
TTITLE43=Nick Brennan - Radio Liner - Kickin' Country
TTITLE44=Nick Brennan - Radio Liner - Hometown Country
TTITLE45=Nick Brennan - Radio Liner - Super Country
TTITLE46=Nick Brennan - Radio Liner - Today's Hot Country
TTITLE47=Nick Brennan - Radio Liner - Best In Today's Country
TTITLE48=Nick Brennan - Radio Liner - More of the Country You Love
TTITLE49=Nick Brennan - Radio Liner - Howlin' Country
TTITLE50=Rick Monroe - Radio Liner - My New Single
TTITLE51=Rick Monroe - Radio Liner - Today's Best Country
TTITLE52=Rick Monroe - Radio Liner - Kickin' Country
TTITLE53=Rick Monroe - Radio Liner - Hometown Country
TTITLE54=Rick Monroe - Radio Liner - Super Country
TTITLE55=Rick Monroe - Radio Liner - Today's Hot Country
TTITLE56=Rick Monroe - Radio Liner - Best In Today's Country
TTITLE57=Rick Monroe - Radio Liner - More of the Country You Love
TTITLE58=Rick Monroe - Radio Liner - Howlin' Country
EXTD=
EXTT0=
EXTT1=
EXTT2=
EXTT3=
EXTT4=
EXTT5=
EXTT6=
EXTT7=
EXTT8=
EXTT9=
EXTT10=
EXTT11=
EXTT12=
EXTT13=
EXTT14=
EXTT15=
EXTT16=
EXTT17=
EXTT18=
EXTT19=
EXTT20=
EXTT21=
EXTT22=
EXTT23=
EXTT24=
EXTT25=
EXTT26=
EXTT27=
EXTT28=
EXTT29=
EXTT30=
EXTT31=
EXTT32=
EXTT33=
EXTT34=
EXTT35=
EXTT36=
EXTT37=
EXTT38=
EXTT39=
EXTT40=
EXTT41=
EXTT42=
EXTT43=
EXTT44=
EXTT45=
EXTT46=
EXTT47=
EXTT48=
EXTT49=
EXTT50=
EXTT51=
EXTT52=
EXTT53=
EXTT54=
EXTT55=
EXTT56=
EXTT57=
EXTT58=
PLAYORDER=
